<svg xmlns="http://www.w3.org/2000/svg" xmlns:xlink="http://www.w3.org/1999/xlink" width="1920" zoomAndPan="magnify" viewBox="0 0 1440 809.999993" height="1080" preserveAspectRatio="xMidYMid meet" version="1.0"><defs><g/><clipPath id="e1c4b235cb"><path d="M 159 297 L 371 297 L 371 488 L 159 488 Z M 159 297 " clip-rule="nonzero"/></clipPath><clipPath id="2b1cd83c9e"><path d="M 442.222656 526.667969 L 140.78125 574.730469 L 100.160156 319.945312 L 401.601562 271.886719 Z M 442.222656 526.667969 " clip-rule="nonzero"/></clipPath><clipPath id="b229cbc41f"><path d="M 442.222656 526.667969 L 140.78125 574.730469 L 100.160156 319.945312 L 401.601562 271.886719 Z M 442.222656 526.667969 " clip-rule="nonzero"/></clipPath><clipPath id="5b4f538c38"><rect x="0" width="1438" y="0" height="349"/></clipPath></defs><g clip-path="url(#e1c4b235cb)"><g clip-path="url(#2b1cd83c9e)"><g clip-path="url(#b229cbc41f)"><path fill="#ffffff" d="M 256.726562 400.546875 C 256.726562 400.546875 238.503906 500.347656 181.652344 486.289062 C 124.792969 472.234375 187.367188 339.816406 241.648438 297.6875 C 241.648438 297.6875 416.46875 365.167969 359.332031 457.082031 C 302.195312 548.992188 256.726562 400.546875 256.726562 400.546875 Z M 256.726562 400.546875 " fill-opacity="1" fill-rule="nonzero"/></g></g></g><g transform="matrix(1, 0, 0, 1, 0, 213)"><g clip-path="url(#5b4f538c38)"><g fill="#ffffff" fill-opacity="1"><g transform="translate(0.14807, 270.567269)"><g><path d="M 99.578125 -150.65625 C 85.203125 -150.6875 74.0625 -145.3125 66.15625 -134.53125 C 58.25 -123.757812 54.269531 -108.722656 54.21875 -89.421875 C 54.101562 -49.265625 69.113281 -29.144531 99.25 -29.0625 C 111.894531 -29.019531 127.222656 -32.140625 145.234375 -38.421875 L 145.140625 -6.390625 C 130.347656 -0.265625 113.835938 2.773438 95.609375 2.734375 C 69.398438 2.660156 49.375 -5.335938 35.53125 -21.265625 C 21.695312 -37.203125 14.820312 -60.035156 14.90625 -89.765625 C 14.957031 -108.492188 18.410156 -124.890625 25.265625 -138.953125 C 32.117188 -153.023438 41.941406 -163.800781 54.734375 -171.28125 C 67.523438 -178.757812 82.503906 -182.476562 99.671875 -182.4375 C 117.171875 -182.382812 134.738281 -178.101562 152.375 -169.59375 L 139.953125 -138.59375 C 133.234375 -141.8125 126.46875 -144.617188 119.65625 -147.015625 C 112.84375 -149.421875 106.148438 -150.632812 99.578125 -150.65625 Z M 99.578125 -150.65625 "/></g></g></g><g fill="#ffffff" fill-opacity="1"><g transform="translate(160.929622, 271.008114)"><g/></g></g><g fill="#ffffff" fill-opacity="1"><g transform="translate(226.467047, 271.18781)"><g/></g></g><g fill="#ffffff" fill-opacity="1"><g transform="translate(292.004473, 271.367506)"><g/></g></g><g fill="#ffffff" fill-opacity="1"><g transform="translate(357.553565, 271.547235)"><g><path d="M 61.140625 -99.984375 L 73.46875 -99.953125 C 85.539062 -99.921875 94.453125 -101.910156 100.203125 -105.921875 C 105.960938 -109.929688 108.851562 -116.25 108.875 -124.875 C 108.894531 -133.414062 105.972656 -139.5 100.109375 -143.125 C 94.253906 -146.757812 85.164062 -148.59375 72.84375 -148.625 L 61.265625 -148.65625 Z M 61.046875 -68.9375 L 60.859375 0.171875 L 22.671875 0.0625 L 23.15625 -180.0625 L 75.640625 -179.921875 C 100.109375 -179.847656 118.203125 -175.335938 129.921875 -166.390625 C 141.648438 -157.453125 147.488281 -143.90625 147.4375 -125.75 C 147.40625 -115.15625 144.460938 -105.738281 138.609375 -97.5 C 132.765625 -89.257812 124.5 -82.816406 113.8125 -78.171875 C 140.800781 -37.597656 158.382812 -11.390625 166.5625 0.453125 L 124.1875 0.34375 L 81.375 -68.890625 Z M 61.046875 -68.9375 "/></g></g></g><g fill="#f4ee19" fill-opacity="1"><g transform="translate(524.125809, 272.003957)"><g><path d="M 98.921875 0.265625 L 55.953125 -141.15625 L 54.84375 -141.15625 C 56.320312 -112.40625 57.050781 -93.226562 57.03125 -83.625 L 56.796875 0.15625 L 22.671875 0.0625 L 23.15625 -180.0625 L 75.140625 -179.921875 L 117.390625 -42.046875 L 118.140625 -42.046875 L 163.71875 -179.671875 L 215.71875 -179.53125 L 215.234375 0.59375 L 179.625 0.484375 L 179.859375 -84.765625 C 179.867188 -88.796875 179.941406 -93.4375 180.078125 -98.6875 C 180.222656 -103.945312 180.816406 -117.90625 181.859375 -140.5625 L 180.75 -140.5625 L 133.921875 0.359375 Z M 98.921875 0.265625 "/></g></g></g><g fill="#f4ee19" fill-opacity="1"><g transform="translate(762.006966, 272.656201)"><g><path d="M 132.9375 0.359375 L 119.984375 -42.546875 L 54.3125 -42.734375 L 41.15625 0.109375 L 0 0 L 64.078125 -180.6875 L 110.765625 -180.5625 L 174.078125 0.46875 Z M 110.953125 -74.609375 C 98.984375 -113.484375 92.25 -135.46875 90.75 -140.5625 C 89.25 -145.664062 88.175781 -149.695312 87.53125 -152.65625 C 84.78125 -142.144531 76.941406 -116.171875 64.015625 -74.734375 Z M 110.953125 -74.609375 "/></g></g></g><g fill="#f4ee19" fill-opacity="1"><g transform="translate(936.075343, 273.133476)"><g><path d="M 92.15625 0.25 L 53.96875 0.140625 L 54.375 -148.1875 L 5.453125 -148.3125 L 5.53125 -180.109375 L 141.546875 -179.734375 L 141.46875 -147.9375 L 92.5625 -148.078125 Z M 92.15625 0.25 "/></g></g></g><g fill="#f4ee19" fill-opacity="1"><g transform="translate(1082.179473, 273.534078)"><g><path d="M 99.578125 -150.65625 C 85.203125 -150.6875 74.0625 -145.3125 66.15625 -134.53125 C 58.25 -123.757812 54.269531 -108.722656 54.21875 -89.421875 C 54.101562 -49.265625 69.113281 -29.144531 99.25 -29.0625 C 111.894531 -29.019531 127.222656 -32.140625 145.234375 -38.421875 L 145.140625 -6.390625 C 130.347656 -0.265625 113.835938 2.773438 95.609375 2.734375 C 69.398438 2.660156 49.375 -5.335938 35.53125 -21.265625 C 21.695312 -37.203125 14.820312 -60.035156 14.90625 -89.765625 C 14.957031 -108.492188 18.410156 -124.890625 25.265625 -138.953125 C 32.117188 -153.023438 41.941406 -163.800781 54.734375 -171.28125 C 67.523438 -178.757812 82.503906 -182.476562 99.671875 -182.4375 C 117.171875 -182.382812 134.738281 -178.101562 152.375 -169.59375 L 139.953125 -138.59375 C 133.234375 -141.8125 126.46875 -144.617188 119.65625 -147.015625 C 112.84375 -149.421875 106.148438 -150.632812 99.578125 -150.65625 Z M 99.578125 -150.65625 "/></g></g></g><g fill="#f4ee19" fill-opacity="1"><g transform="translate(1242.943319, 273.974874)"><g><path d="M 170.265625 0.46875 L 132.1875 0.359375 L 132.40625 -77.375 L 61.078125 -77.5625 L 60.859375 0.171875 L 22.671875 0.0625 L 23.15625 -180.0625 L 61.34375 -179.953125 L 61.15625 -109.359375 L 132.484375 -109.171875 L 132.671875 -179.765625 L 170.75 -179.65625 Z M 170.265625 0.46875 "/></g></g></g></g></g></svg>